  <?xml version="1.0" encoding="UTF-8"?><svg width="69px" height="81px" viewBox="0 0 69 81" version="1.1" xmlns="http://www.w3.org/2000/svg" xmlns:xlink="http://www.w3.org/1999/xlink">    <defs>        <polygon id="path-1" points="0.00918132075 0.135284159 12.6204905 0.135284159 12.6204905 18.9846278 0.00918132075 18.9846278"></polygon>        <polygon id="path-3" points="0.0101735805 0.135248651 5.53696299 0.135248651 5.53696299 11.0590057 5.53696299 63.6058713 0.0101735805 63.6058713 0.0101735805 48.1204518"></polygon>    </defs>    <g id="Page-1" stroke="none" stroke-width="1" fill="none" fill-rule="evenodd">        <g id="Group-33">            <rect id="Rectangle" fill="#FBC71C" x="22" y="0" width="47" height="66" rx="6"></rect>            <g id="file" transform="translate(0.000000, 4.000000)">                <path d="M61.032967,61.5803571 C61.032967,62.3926875 60.3674615,63.0535714 59.5494505,63.0535714 L14.4505495,63.0535714 C13.6325385,63.0535714 12.967033,62.3926875 12.967033,61.5803571 L12.967033,15.9107143 L20.4587912,15.9107143 C23.5264066,15.9107143 26.021978,13.4324732 26.021978,10.3861607 L26.021978,2.94642857 L59.5494505,2.94642857 C60.3674615,2.94642857 61.032967,3.6073125 61.032967,4.41964286 L61.032967,61.5803571 Z M23.0549451,5.02999554 L23.0549451,10.3861607 C23.0549451,11.8076652 21.8902363,12.9642857 20.4587912,12.9642857 L15.065022,12.9642857 L23.0549451,5.02999554 Z M59.5494505,0 L24.5384615,0 C24.5390549,0.00132589286 24.5393516,0.00235714286 24.5399451,0.00368303571 C24.153489,0.00338839286 23.7734121,0.149383929 23.489467,0.431504464 L10.434522,13.3957902 C10.1507253,13.6777634 10.0035604,14.0546116 10.0035604,14.4380893 C10.0023736,14.437942 10.0011868,14.4377946 10,14.4375 L10,61.5803571 C10,64.0173482 11.9965165,66 14.4505495,66 L59.5494505,66 C62.0034835,66 64,64.0173482 64,61.5803571 L64,4.41964286 C64,1.98265179 62.0034835,0 59.5494505,0 Z" id="Fill-1" fill="#FFFFFF"></path>                <g id="Group-6" transform="translate(0.000000, 57.000000)">                    <g id="Clip-3"></g>                    <path d="M11.0902704,15.9949227 L9.56005023,15.9949227 C8.71490966,15.9949227 8.02983011,16.6643176 8.02983011,17.4897752 C8.02983011,18.3152328 8.71490966,18.9846278 9.56005023,18.9846278 L11.0902704,18.9846278 C11.9354109,18.9846278 12.6204905,18.3152328 12.6204905,17.4897752 C12.6204905,16.6643176 11.9354109,15.9949227 11.0902704,15.9949227" id="Fill-2" fill="#FFFFFF" mask="url(#mask-2)"></path>                    <path d="M1.53022013,4.61984191 C2.3753607,4.61984191 3.06044025,3.95044693 3.06044025,3.12498933 L3.06044025,1.63013674 C3.06044025,0.804679147 2.3753607,0.135284159 1.53022013,0.135284159 C0.68507955,0.135284159 0,0.804679147 0,1.63013674 L0,3.12498933 C0,3.95059641 0.68507955,4.61984191 1.53022013,4.61984191" id="Fill-4" fill="#0A090B" mask="url(#mask-2)"></path>                    <path d="M3.06044025,10.5992523 L3.06044025,9.10439967 C3.06044025,8.27894207 2.3753607,7.60954708 1.53022013,7.60954708 C0.68507955,7.60954708 0,8.27894207 0,9.10439967 L0,10.5992523 C0,11.4247099 0.68507955,12.0941048 1.53022013,12.0941048 C2.3753607,12.0941048 3.06044025,11.4248593 3.06044025,10.5992523" id="Fill-5" fill="#0A090B" mask="url(#mask-2)"></path>                </g>                <path d="M18.3333333,73 L16.6666667,73 C15.7461667,73 15,73.6717 15,74.5 C15,75.3283 15.7461667,76 16.6666667,76 L18.3333333,76 C19.2538333,76 20,75.3283 20,74.5 C20,73.6717 19.2538333,73 18.3333333,73" id="Fill-7" fill="#FFFFFF"></path>                <g id="Group-16" transform="translate(0.000000, 13.000000)">                    <g id="Clip-9"></g>                    <path d="M3.78372413,60.2866751 C3.18382201,59.6530239 2.11440914,59.5679892 1.39547612,60.0967292 C0.676543101,60.6254692 0.580063646,61.5680253 1.17996577,62.2016764 C1.72442189,62.7768942 2.42894234,63.2259795 3.21739482,63.5006613 C3.42205335,63.5720964 3.63298558,63.6058713 3.84035707,63.6058713 C4.51571325,63.6058713 5.15427498,63.2477986 5.41760116,62.6606252 C5.76214642,61.8930704 5.33536472,61.024789 4.46450623,60.7214136 C4.20168873,60.6298032 3.9663399,60.4794605 3.78372413,60.2866751 Z" id="Fill-8" fill="#FFFFFF" mask="url(#mask-4)"></path>                    <path d="M1.69559674,12.0909305 C2.63207483,12.0909305 3.39119349,11.4217112 3.39119349,10.5964703 L3.39119349,9.10201002 C3.39119349,8.27676909 2.63207483,7.6075498 1.69559674,7.6075498 C0.759118662,7.6075498 0,8.27676909 0,9.10201002 L0,10.5964703 C0,11.4218606 0.759118662,12.0909305 1.69559674,12.0909305" id="Fill-10" fill="#FFFFFF" mask="url(#mask-4)"></path>                    <path d="M1.69559674,4.61862934 C2.63207483,4.61862934 3.39119349,3.94941005 3.39119349,3.12416911 L3.39119349,1.62970888 C3.39119349,0.804467941 2.63207483,0.135248651 1.69559674,0.135248651 C0.759118662,0.135248651 0,0.804467941 0,1.62970888 L0,3.12416911 C0,3.94955949 0.759118662,4.61862934 1.69559674,4.61862934" id="Fill-11" fill="#FFFFFF" mask="url(#mask-4)"></path>                    <path d="M1.69559674,19.5632316 C2.63207483,19.5632316 3.39119349,18.8940123 3.39119349,18.0687714 L3.39119349,16.5743112 C3.39119349,15.7490702 2.63207483,15.0798509 1.69559674,15.0798509 C0.759118662,15.0798509 0,15.7490702 0,16.5743112 L0,18.0687714 C0,18.8941618 0.759118662,19.5632316 1.69559674,19.5632316" id="Fill-12" fill="#FFFFFF" mask="url(#mask-4)"></path>                    <path d="M1.69559674,41.9801351 C2.63207483,41.9801351 3.39119349,41.3109158 3.39119349,40.4856748 L3.39119349,38.9912146 C3.39119349,38.1659737 2.63207483,37.4967544 1.69559674,37.4967544 C0.759118662,37.4967544 0,38.1659737 0,38.9912146 L0,40.4856748 C0,41.3110652 0.759118662,41.9801351 1.69559674,41.9801351" id="Fill-13" fill="#FFFFFF" mask="url(#mask-4)"></path>                    <path d="M1.69559674,49.4524362 C2.63207483,49.4524362 3.39119349,48.7832169 3.39119349,47.957976 L3.39119349,46.4635157 C3.39119349,45.6382748 2.63207483,44.9690555 1.69559674,44.9690555 C0.759118662,44.9690555 0,45.6382748 0,46.4635157 L0,47.957976 C0,48.7833664 0.759118662,49.4524362 1.69559674,49.4524362" id="Fill-13" fill="#FFFFFF" mask="url(#mask-4)"></path>                    <path d="M1.69559674,56.9247374 C2.63207483,56.9247374 3.39119349,56.2555181 3.39119349,55.4302771 L3.39119349,53.9358169 C3.39119349,53.110576 2.63207483,52.4413567 1.69559674,52.4413567 C0.759118662,52.4413567 0,53.110576 0,53.9358169 L0,55.4302771 C0,56.2556675 0.759118662,56.9247374 1.69559674,56.9247374" id="Fill-13" fill="#FFFFFF" mask="url(#mask-4)"></path>                    <path d="M1.69559674,27.0355328 C2.63207483,27.0355328 3.39119349,26.3663135 3.39119349,25.5410725 L3.39119349,24.0466123 C3.39119349,23.2213714 2.63207483,22.5521521 1.69559674,22.5521521 C0.759118662,22.5521521 0,23.2213714 0,24.0466123 L0,25.5410725 C0,26.3664629 0.759118662,27.0355328 1.69559674,27.0355328" id="Fill-14" fill="#FFFFFF" mask="url(#mask-4)"></path>                    <path d="M1.69559674,34.5078339 C2.63207483,34.5078339 3.39119349,33.8386146 3.39119349,33.0133737 L3.39119349,31.5189135 C3.39119349,30.6936725 2.63207483,30.0244532 1.69559674,30.0244532 C0.759118662,30.0244532 0,30.6936725 0,31.5189135 L0,33.0133737 C0,33.8387641 0.759118662,34.5078339 1.69559674,34.5078339" id="Fill-15" fill="#FFFFFF" mask="url(#mask-4)"></path>                </g>                <path d="M9,11.5 C9,10.6717 8.25383333,10 7.33333333,10 L5.66666667,10 C4.74616667,10 4,10.6717 4,11.5 C4,12.3283 4.74616667,13 5.66666667,13 L7.33333333,13 C8.25366667,13 9,12.3283 9,11.5" id="Fill-17" fill="#FFFFFF"></path>                <path d="M47.3333333,73 L45.6666667,73 C44.7461667,73 44,73.6717 44,74.5 C44,75.3283 44.7461667,76 45.6666667,76 L47.3333333,76 C48.2538333,76 49,75.3283 49,74.5 C49,73.6717 48.2538333,73 47.3333333,73" id="Fill-18" fill="#FFFFFF"></path>                <path d="M25.3333333,73 L23.6666667,73 C22.7461667,73 22,73.6717 22,74.5 C22,75.3283 22.7461667,76 23.6666667,76 L25.3333333,76 C26.2538333,76 27,75.3283 27,74.5 C27,73.6717 26.2538333,73 25.3333333,73" id="Fill-19" fill="#FFFFFF"></path>                <path d="M52.5159806,69 C51.6964387,69 51.0321096,69.7466071 51.0321096,70.667278 L51.0321096,71.8422088 C51.0321096,71.925406 51.0267677,72.0084364 51.0160838,72.0892994 C50.8964838,73.0003001 51.4567935,73.8476108 52.2675806,73.9819934 C52.3410322,73.9941645 52.4138903,74 52.4860064,74 C53.2096903,74 53.8434516,73.4042816 53.9522194,72.5758111 C53.9838258,72.334556 54,72.0874654 54,71.8422088 L54,70.667278 C53.9998516,69.7466071 53.3355226,69 52.5159806,69" id="Fill-20" fill="#FFFFFF"></path>                <path d="M40.3333333,73 L38.6666667,73 C37.7461667,73 37,73.6717 37,74.5 C37,75.3283 37.7461667,76 38.6666667,76 L40.3333333,76 C41.2538333,76 42,75.3283 42,74.5 C42,73.6717 41.2538333,73 40.3333333,73" id="Fill-21" fill="#FFFFFF"></path>                <path d="M33.3333333,73 L31.6666667,73 C30.7461667,73 30,73.6717 30,74.5 C30,75.3283 30.7461667,76 31.6666667,76 L33.3333333,76 C34.2538333,76 35,75.3283 35,74.5 C35,73.6717 34.2538333,73 33.3333333,73" id="Fill-22" fill="#FFFFFF"></path>                <path d="M31.4782609,34 C32.3187174,34 33,33.3283 33,32.5 C33,31.6717 32.3187174,31 31.4782609,31 L20.5217391,31 C19.6812826,31 19,31.6717 19,32.5 C19,33.3283 19.6812826,34 20.5217391,34 L31.4782609,34 Z" id="Fill-23" fill="#FFFFFF"></path>                <path d="M20.5026861,53 C19.6727525,53 19,53.6717 19,54.5 C19,55.3283 19.6727525,56 20.5026861,56 L45.4973139,56 C46.3272475,56 47,55.3283 47,54.5 C47,53.6717 46.3272475,53 45.4973139,53 L20.5026861,53 Z" id="Fill-24" fill="#FFFFFF"></path>                <path d="M52.5,53 C52.1055,53 51.7185,53.16035 51.4395,53.4395 C51.1605,53.71865 51,54.1055 51,54.5 C51,54.8945 51.1605,55.2815 51.4395,55.56035 C51.7185,55.83935 52.1055,56 52.5,56 C52.8945,56 53.2815,55.8395 53.5605,55.56035 C53.8395,55.2815 54,54.8945 54,54.5 C54,54.1055 53.8395,53.7185 53.5605,53.4395 C53.2815,53.16035 52.8945,53 52.5,53" id="Fill-25" fill="#FFFFFF"></path>                <path d="M20.5217391,45 L31.4782609,45 C32.3187174,45 33,44.3283 33,43.5 C33,42.6717 32.3187174,42 31.4782609,42 L20.5217391,42 C19.6812826,42 19,42.6717 19,43.5 C19,44.3283 19.6812826,45 20.5217391,45" id="Fill-26" fill="#FFFFFF"></path>                <path d="M52.5127458,10 L30.1047324,10 C29.2833219,10 28.6174782,10.6814348 28.6174782,11.5217391 C28.6174782,12.3620435 29.2833219,13.0434783 30.1047324,13.0434783 L51.0254915,13.0434783 L51.0254915,20.9565217 L20.4872542,20.9565217 C19.6658437,20.9565217 19,21.6379565 19,22.4782609 C19,23.3185652 19.6658437,24 20.4872542,24 L52.5127458,24 C53.3341563,24 54,23.3185652 54,22.4782609 L54,11.5217391 C54,10.6814348 53.3341563,10 52.5127458,10" id="Fill-27" fill="#FFFFFF"></path>                <path d="M40.0508475,41.9565217 L51.9491525,41.9565217 L51.9491525,34.0434783 L40.0508475,34.0434783 L40.0508475,41.9565217 Z M53.4745763,31 L38.5254237,31 C37.6829322,31 37,31.6814348 37,32.5217391 L37,43.4782609 C37,44.3185652 37.6829322,45 38.5254237,45 L53.4745763,45 C54.3170678,45 55,44.3185652 55,43.4782609 L55,32.5217391 C55,31.6814348 54.3170678,31 53.4745763,31 Z" id="Fill-28" fill="#FFFFFF"></path>            </g>        </g>    </g></svg>
